<svg width="23" height="16" viewBox="0 0 23 16" fill="none" xmlns="http://www.w3.org/2000/svg">
<path d="M1.4562 15.7491C1.30749 15.8913 1.11253 15.9791 0.906768 15.9967C0.701008 16.0143 0.498106 15.9605 0.334949 15.8449C0.171791 15.7294 0.0592111 15.5599 0.0176703 15.3672C-0.0238705 15.1745 0.00838725 14.9714 0.108581 14.7949L10.5698 0.42936C10.6477 0.301543 10.7586 0.194573 10.8912 0.119221C11.0238 0.0438686 11.1735 0.00279569 11.3252 0.000137742C11.4769 -0.0025202 11.6252 0.0333303 11.7552 0.10408C11.8853 0.17483 11.9924 0.277981 12.0659 0.403144L22.0281 14.4805C22.1267 14.6536 22.1554 14.8574 22.1089 15.0542C22.0624 15.251 21.9439 15.4274 21.7753 15.5507C21.6051 15.6717 21.3975 15.7314 21.1902 15.7189C20.983 15.7064 20.79 15.6225 20.6462 15.4826C16.7667 11.4538 5.47935 11.5821 1.4562 15.7491Z" fill="white"/>
</svg>
