<svg width="24" height="24" viewBox="0 0 24 24" fill="none" xmlns="http://www.w3.org/2000/svg">
<g clip-path="url(#clip0_194_41)">
<path d="M23.8558 12.3317C23.5962 11.8702 22.9904 11.6971 22.5 11.9856L19.2116 13.8894L18.3751 14.3798V18.9374L19.1539 19.3989C19.1827 19.3989 19.1827 19.4278 19.2116 19.4278L22.4423 21.3028C22.5866 21.4181 22.7885 21.4758 22.9904 21.4758C23.5385 21.4758 23.9711 21.0431 23.9711 20.4951V16.6297L24 12.8221C24 12.649 23.9711 12.4759 23.8558 12.3317Z" fill="#929292"/>
<path d="M4.64447 10.8606C7.21174 10.8606 9.28864 8.78369 9.28864 6.21641C9.28864 3.64913 7.21174 1.57224 4.64447 1.57224C2.07719 1.57224 0.000292874 3.64913 0.000292874 6.21641C-0.0285529 8.78369 2.07719 10.8606 4.64447 10.8606ZM4.64447 4.31259C5.71176 4.31259 6.54829 5.17796 6.54829 6.21641C6.54829 7.28371 5.68292 8.12023 4.64447 8.12023C3.60602 8.12023 2.74064 7.25486 2.74064 6.21641C2.7118 5.14912 3.57717 4.31259 4.64447 4.31259Z" fill="#929292"/>
<path d="M16.4136 11.1202C15.6636 11.4952 14.8271 11.726 13.9328 11.726C12.8367 11.726 11.7982 11.4087 10.9329 10.8317H7.64445C6.77907 11.4087 5.74062 11.726 4.64448 11.726C3.75026 11.726 2.91373 11.524 2.16374 11.1202C1.50029 11.4952 1.03876 12.2452 1.03876 13.0529V20.0912C1.03876 21.3893 2.10605 22.4278 3.37527 22.4278H15.2309C16.529 22.4278 17.5674 21.3605 17.5674 20.0912V13.0529C17.5386 12.2452 17.077 11.4952 16.4136 11.1202Z" fill="#929292"/>
<path d="M13.9328 10.8606C16.5001 10.8606 18.577 8.78369 18.577 6.21641C18.577 3.64913 16.5001 1.57224 13.9328 1.57224C11.3655 1.57224 9.28864 3.64913 9.28864 6.21641C9.28864 8.78369 11.3655 10.8606 13.9328 10.8606ZM13.9328 4.31259C15.0001 4.31259 15.8366 5.17796 15.8366 6.21641C15.8366 7.28371 14.9713 8.12023 13.9328 8.12023C12.8944 8.12023 12.029 7.25486 12.029 6.21641C12.029 5.14912 12.8655 4.31259 13.9328 4.31259Z" fill="#929292"/>
</g>
<defs>
<clipPath id="clip0_194_41">
<rect width="24" height="24" fill="white"/>
</clipPath>
</defs>
</svg>
