<svg width="95" height="95" viewBox="0 0 95 95" fill="none" xmlns="http://www.w3.org/2000/svg">
<g filter="url(#filter0_d_249_5935)">
<circle cx="47.5" cy="47.5" r="32.5" fill="white"/>
</g>
<g filter="url(#filter1_d_249_5935)">
<path d="M45.3675 47.5003L36.2422 38.3766C35.6527 37.7872 35.6527 36.8315 36.2422 36.2421C36.8318 35.6526 37.7876 35.6526 38.3772 36.2421L47.5025 45.3657L56.6229 36.247C57.2125 35.6575 58.1683 35.6575 58.7579 36.247C59.3474 36.8364 59.3474 37.7921 58.7579 38.3815L49.6374 47.5003L58.7574 56.6185C59.3469 57.2079 59.3469 58.1636 58.7574 58.753C58.1678 59.3425 57.212 59.3425 56.6224 58.753L47.5025 49.6348L38.3777 58.7579C37.7881 59.3474 36.8323 59.3474 36.2427 58.7579C35.6532 58.1685 35.6532 57.2128 36.2427 56.6234L45.3675 47.5003Z" fill="#3E4958"/>
</g>
<defs>
<filter id="filter0_d_249_5935" x="0" y="0" width="95" height="95" filterUnits="userSpaceOnUse" color-interpolation-filters="sRGB">
<feFlood flood-opacity="0" result="BackgroundImageFix"/>
<feColorMatrix in="SourceAlpha" type="matrix" values="0 0 0 0 0 0 0 0 0 0 0 0 0 0 0 0 0 0 127 0" result="hardAlpha"/>
<feOffset/>
<feGaussianBlur stdDeviation="7.5"/>
<feColorMatrix type="matrix" values="0 0 0 0 0 0 0 0 0 0 0 0 0 0 0 0 0 0 0.05 0"/>
<feBlend mode="normal" in2="BackgroundImageFix" result="effect1_dropShadow_249_5935"/>
<feBlend mode="normal" in="SourceGraphic" in2="effect1_dropShadow_249_5935" result="shape"/>
</filter>
<filter id="filter1_d_249_5935" x="25.8" y="29.8" width="43.3999" height="43.4" filterUnits="userSpaceOnUse" color-interpolation-filters="sRGB">
<feFlood flood-opacity="0" result="BackgroundImageFix"/>
<feColorMatrix in="SourceAlpha" type="matrix" values="0 0 0 0 0 0 0 0 0 0 0 0 0 0 0 0 0 0 127 0" result="hardAlpha"/>
<feOffset dy="4"/>
<feGaussianBlur stdDeviation="5"/>
<feColorMatrix type="matrix" values="0 0 0 0 0 0 0 0 0 0 0 0 0 0 0 0 0 0 0.15 0"/>
<feBlend mode="normal" in2="BackgroundImageFix" result="effect1_dropShadow_249_5935"/>
<feBlend mode="normal" in="SourceGraphic" in2="effect1_dropShadow_249_5935" result="shape"/>
</filter>
</defs>
</svg>
