<svg width="26" height="19" viewBox="0 0 26 19" fill="none" xmlns="http://www.w3.org/2000/svg">
<path d="M24.6595 14.9831H1.17428C0.528433 14.9831 0 14.4645 0 13.8306V1.15256C0 0.518659 0.528433 0 1.17428 0H24.6596C25.3054 0 25.8339 0.518659 25.8339 1.15256V13.8306C25.8338 14.4645 25.3054 14.9831 24.6595 14.9831Z" fill="#0E9347"/>
<path d="M21.7492 9.98875C20.4071 9.98875 19.1818 10.6755 18.4815 11.7992C17.898 11.4871 17.2562 11.2374 16.4976 11.2374C14.4554 11.2374 12.7632 12.8606 12.4714 14.9831H24.6667C25.2502 14.9831 25.717 14.5461 25.8338 13.9218C25.6004 11.7368 23.8498 9.98875 21.7492 9.98875Z" fill="#0D8944"/>
<path d="M22.5379 13.3184H3.29607C3.29607 12.153 2.21374 11.1995 0.890869 11.1995V3.78362C2.21374 3.78362 3.29607 2.83017 3.29607 1.66481H22.5379C22.5379 2.83017 23.6202 3.78362 24.9431 3.78362V11.1995C23.6202 11.1995 22.5379 12.153 22.5379 13.3184Z" fill="#3BB54A"/>
<path d="M21.7822 10.1983C20.4281 10.1983 19.1919 10.8034 18.4854 11.7936C17.8967 11.5186 17.2491 11.2985 16.4838 11.2985C14.8354 11.2985 13.4225 12.1787 12.7749 13.4989H22.3709C22.3709 12.2887 23.3718 11.3535 24.6669 11.2985C23.9016 10.6384 22.9008 10.1983 21.7822 10.1983Z" fill="#0E9347"/>
<path d="M12.9514 12.3987C15.5525 12.3987 17.6611 10.1821 17.6611 7.44779C17.6611 4.71348 15.5525 2.49689 12.9514 2.49689C10.3503 2.49689 8.2417 4.71348 8.2417 7.44779C8.2417 10.1821 10.3503 12.3987 12.9514 12.3987Z" fill="#0E9347"/>
<path d="M5.88691 8.54803C6.5372 8.54803 7.06435 8.05544 7.06435 7.44781C7.06435 6.84018 6.5372 6.3476 5.88691 6.3476C5.23663 6.3476 4.70947 6.84018 4.70947 7.44781C4.70947 8.05544 5.23663 8.54803 5.88691 8.54803Z" fill="#0E9347"/>
<path d="M20.0163 8.54803C20.6666 8.54803 21.1937 8.05544 21.1937 7.44781C21.1937 6.84018 20.6666 6.3476 20.0163 6.3476C19.366 6.3476 18.8389 6.84018 18.8389 7.44781C18.8389 8.05544 19.366 8.54803 20.0163 8.54803Z" fill="#0E9347"/>
<path d="M13.4737 6.93662H12.3602C12.0261 6.93662 11.8034 6.71462 11.8034 6.38169C11.8034 6.04872 12.0262 5.82677 12.3602 5.82677H14.0305C14.3646 5.82677 14.5873 5.60477 14.5873 5.27185C14.5873 4.93888 14.3645 4.71693 14.0305 4.71693H13.4737C13.4737 4.38395 13.251 4.162 12.917 4.162C12.5829 4.162 12.3602 4.384 12.3602 4.71693C11.4137 4.71693 10.6899 5.43833 10.6899 6.38174C10.6899 7.32515 11.4137 8.04656 12.3602 8.04656H13.4738C13.8079 8.04656 14.0306 8.26855 14.0306 8.60148C14.0306 8.93445 13.8078 9.1564 13.4738 9.1564H11.8035C11.4694 9.1564 11.2467 9.3784 11.2467 9.71132C11.2467 10.0443 11.4695 10.2662 11.8035 10.2662H12.3602C12.3602 10.5992 12.583 10.8212 12.917 10.8212C13.2511 10.8212 13.4737 10.5992 13.4737 10.2662C14.4203 10.2662 15.1441 9.54484 15.1441 8.60143C15.1441 7.65802 14.4203 6.93662 13.4737 6.93662Z" fill="#89C763"/>
<path d="M21.8791 17.9127C24.155 17.9127 26.0001 16.1887 26.0001 14.062C26.0001 11.9353 24.155 10.2112 21.8791 10.2112C19.6031 10.2112 17.7581 11.9353 17.7581 14.062C17.7581 16.1887 19.6031 17.9127 21.8791 17.9127Z" fill="#F6B545"/>
<path d="M21.8791 10.2112C19.5831 10.2112 17.7581 11.9166 17.7581 14.062C17.7581 16.2074 19.5831 17.9127 21.8791 17.9127C24.1751 17.9127 26.0001 16.2073 26.0001 14.062C26.0001 11.9166 24.1751 10.2112 21.8791 10.2112ZM21.8791 16.8124C20.2307 16.8124 18.9355 15.6022 18.9355 14.0619C18.9355 12.5216 20.2307 11.3114 21.8791 11.3114C23.5275 11.3114 24.8226 12.5216 24.8226 14.0619C24.8226 15.6022 23.5275 16.8124 21.8791 16.8124Z" fill="#FFCB5B"/>
<path d="M21.8789 17.8576C24.1749 17.9126 25.9999 16.1523 25.9999 14.0619H25.941C25.6467 14.0619 25.4112 14.282 25.3524 14.557C25.2346 15.3272 24.8225 16.0423 24.2338 16.5374C23.7628 16.9775 23.1152 17.2525 22.4088 17.3626C22.1144 17.3625 21.8789 17.5825 21.8789 17.8576Z" fill="#F6B545"/>
<path d="M21.8791 10.2664C19.5831 10.2114 17.7581 11.9717 17.7581 14.0621H17.8169C18.1113 14.0621 18.3468 13.8421 18.4056 13.567C18.5234 12.7969 18.9355 12.0818 19.5242 11.5867C19.9952 11.1466 20.6427 10.8715 21.3492 10.7615C21.6436 10.7615 21.8791 10.5415 21.8791 10.2664Z" fill="#FFE27A"/>
<path d="M19.3477 14.447C19.3477 12.9067 20.6428 11.6965 22.2913 11.6965C22.9977 11.6965 23.6453 11.9166 24.1751 12.3566C23.5864 11.6965 22.8211 11.3114 21.8791 11.3114C20.2307 11.3114 18.9355 12.5217 18.9355 14.062C18.9355 14.9421 19.3476 15.6572 19.9952 16.1523C19.5832 15.7123 19.3477 15.1072 19.3477 14.447Z" fill="#F19920"/>
<path d="M23.6453 15.7672C23.5864 15.7672 23.5276 15.7672 23.4687 15.7122C23.3509 15.6022 23.3509 15.4372 23.4687 15.3272C23.8219 14.9971 23.9985 14.502 23.9985 14.0619C23.9985 13.8969 24.1163 13.7869 24.2929 13.7869C24.4695 13.7869 24.5872 13.8969 24.5872 14.0619C24.5872 14.667 24.3517 15.2721 23.9396 15.7122C23.8219 15.7672 23.7041 15.7672 23.6453 15.7672Z" fill="#FFCB5B"/>
<path d="M21.8792 15.7123C21.526 15.7123 21.2905 15.4922 21.2905 15.1622V12.9618C21.2905 12.6317 21.526 12.4117 21.8792 12.4117C22.2325 12.4117 22.4679 12.6318 22.4679 12.9618V15.1622C22.468 15.4922 22.2325 15.7123 21.8792 15.7123Z" fill="#F19920"/>
<mask id="mask0_326_353" style="mask-type:alpha" maskUnits="userSpaceOnUse" x="17" y="10" width="9" height="8">
<path d="M21.8791 17.9127C24.155 17.9127 26.0001 16.1887 26.0001 14.062C26.0001 11.9353 24.155 10.2112 21.8791 10.2112C19.6031 10.2112 17.7581 11.9353 17.7581 14.062C17.7581 16.1887 19.6031 17.9127 21.8791 17.9127Z" fill="#F6B545"/>
</mask>
<g mask="url(#mask0_326_353)">
<path opacity="0.5" d="M20.1611 14.7496C20.1408 13.4826 19.1745 12.1495 18.2891 11.6767L17.6567 12.5513L18.4409 16.7587L19.3769 17.6806C19.6636 17.1527 20.1813 16.0165 20.1611 14.7496Z" fill="#F19920"/>
</g>
<path d="M15.3063 19C17.5823 19 19.4273 17.276 19.4273 15.1493C19.4273 13.0226 17.5823 11.2986 15.3063 11.2986C13.0303 11.2986 11.1853 13.0226 11.1853 15.1493C11.1853 17.276 13.0303 19 15.3063 19Z" fill="#FFCA5D"/>
<path d="M15.3063 19C17.5823 19 19.4273 17.276 19.4273 15.1493C19.4273 13.0226 17.5823 11.2986 15.3063 11.2986C13.0303 11.2986 11.1853 13.0226 11.1853 15.1493C11.1853 17.276 13.0303 19 15.3063 19Z" fill="#F6B545"/>
<path d="M15.3063 11.2986C13.0103 11.2986 11.1853 13.0039 11.1853 15.1493C11.1853 17.2947 13.0103 19 15.3063 19C17.6023 19 19.4273 17.2946 19.4273 15.1493C19.4273 13.0039 17.6023 11.2986 15.3063 11.2986ZM15.3063 17.8998C13.6579 17.8998 12.3627 16.6895 12.3627 15.1492C12.3627 13.6089 13.6579 12.3987 15.3063 12.3987C16.9547 12.3987 18.2499 13.6089 18.2499 15.1492C18.2499 16.6895 16.9547 17.8998 15.3063 17.8998Z" fill="#FFCB5B"/>
<path d="M15.3066 18.9449C17.6026 18.9999 19.4277 17.2396 19.4277 15.1493H19.3688C19.0744 15.1493 18.8389 15.3693 18.7801 15.6444C18.6623 16.4145 18.2502 17.1296 17.6615 17.6247C17.1906 18.0648 16.543 18.3398 15.8365 18.4499C15.5421 18.4499 15.3066 18.6699 15.3066 18.9449Z" fill="#F6B545"/>
<path d="M15.3066 11.3538C13.0106 11.2988 11.1855 13.0591 11.1855 15.1495H11.2444C11.5388 15.1495 11.7743 14.9294 11.8331 14.6544C11.9509 13.8842 12.363 13.1691 12.9517 12.674C13.4226 12.2339 14.0702 11.9589 14.7767 11.8489C15.0711 11.8489 15.3066 11.6288 15.3066 11.3538Z" fill="#FFE27A"/>
<path d="M12.7749 15.5343C12.7749 13.994 14.0701 12.7838 15.7185 12.7838C16.425 12.7838 17.0726 13.0039 17.6024 13.4439C17.0137 12.7838 16.2483 12.3988 15.3064 12.3988C13.658 12.3988 12.3628 13.609 12.3628 15.1493C12.3628 16.0294 12.7749 16.7445 13.4225 17.2396C13.0104 16.7996 12.7749 16.1945 12.7749 15.5343Z" fill="#F19920"/>
<path d="M17.0728 16.8546C17.0139 16.8546 16.955 16.8546 16.8962 16.7995C16.7784 16.6895 16.7784 16.5245 16.8962 16.4145C17.2494 16.0844 17.426 15.5893 17.426 15.1492C17.426 14.9842 17.5437 14.8742 17.7204 14.8742C17.897 14.8742 18.0147 14.9842 18.0147 15.1492C18.0147 15.7544 17.7792 16.3595 17.3671 16.7995C17.2493 16.8546 17.1316 16.8546 17.0728 16.8546Z" fill="#FFCB5B"/>
<path d="M15.3065 16.7996C14.9532 16.7996 14.7178 16.5795 14.7178 16.2495V14.0491C14.7178 13.719 14.9533 13.499 15.3065 13.499C15.6597 13.499 15.8952 13.7191 15.8952 14.0491V16.2495C15.8952 16.5795 15.6597 16.7996 15.3065 16.7996Z" fill="#F19920"/>
</svg>
