<svg width="20" height="19" viewBox="0 0 20 19" fill="none" xmlns="http://www.w3.org/2000/svg">
<path d="M3.33333 7.6667H7.66667C7.851 7.6667 8 7.51736 8 7.33336C8 7.14936 7.851 7.00003 7.66667 7.00003H3.33333C3.149 7.00003 3 7.14936 3 7.33336C3 7.51736 3.149 7.6667 3.33333 7.6667Z" fill="#3E4958"/>
<path d="M12 8.99997H3.33333C3.149 8.99997 3 9.1493 3 9.3333C3 9.5173 3.149 9.66664 3.33333 9.66664H12C12.1843 9.66664 12.3333 9.5173 12.3333 9.3333C12.3333 9.1493 12.1843 8.99997 12 8.99997Z" fill="#3E4958"/>
<path d="M12 11H3.33333C3.149 11 3 11.1493 3 11.3333C3 11.5173 3.149 11.6667 3.33333 11.6667H12C12.1843 11.6667 12.3333 11.5173 12.3333 11.3333C12.3333 11.1493 12.1843 11 12 11Z" fill="#3E4958"/>
<path d="M18.024 0.0233334L6.64333 0C5.55333 0 4.66667 0.886667 4.66667 1.97667V3.68467L1.97667 3.69033C0.886667 3.69033 0 4.577 0 5.667V12.714C0 13.804 0.886667 14.6903 1.97667 14.6903H4V18.0237C4 18.1613 4.08467 18.285 4.21333 18.3347C4.25233 18.3497 4.293 18.357 4.33333 18.357C4.42533 18.357 4.51567 18.3187 4.58 18.248L7.81467 14.6897L13.3567 14.667C14.4467 14.667 15.3333 13.7803 15.3333 12.6907V12.653L17.0867 14.5817C17.151 14.6523 17.2413 14.6907 17.3333 14.6907C17.3737 14.6907 17.4143 14.6833 17.4533 14.6683C17.582 14.6187 17.6667 14.495 17.6667 14.3573V11.024H18.0233C19.1133 11.024 20 10.1373 20 9.04767V2C20 0.910333 19.1137 0.0236667 18.024 0.0233334ZM14.6667 12.6903C14.6667 13.4127 14.079 14 13.3553 14L7.66533 14.0233C7.572 14.0237 7.48267 14.0633 7.42 14.1323L4.66667 17.1613V14.3567C4.66667 14.1727 4.51767 14.0233 4.33333 14.0233H1.97667C1.25433 14.0233 0.666667 13.4357 0.666667 12.7137V5.66667C0.666667 4.94433 1.25433 4.35667 1.97733 4.35667L5 4.35033C5.00033 4.35033 5.00033 4.35033 5.00067 4.35033L13.3567 4.333C14.079 4.333 14.6667 4.92067 14.6667 5.643V11.79V12.6903ZM19.3333 9.047C19.3333 9.76933 18.7457 10.3567 18.0233 10.3567H17.3333C17.149 10.3567 17 10.506 17 10.69V13.4947L15.3333 11.6613V5.64333C15.3333 4.55333 14.4467 3.66667 13.356 3.66667L5.33333 3.683V1.97633C5.33333 1.254 5.921 0.666333 6.64267 0.666333L18.023 0.689667C18.0233 0.689667 18.0233 0.689667 18.0237 0.689667C18.746 0.689667 19.3337 1.27733 19.3337 1.99967V9.047H19.3333Z" fill="#3E4958"/>
</svg>
