<svg width="25" height="25" viewBox="0 0 25 25" fill="none" xmlns="http://www.w3.org/2000/svg">
<path d="M11.3229 12.5001L6.28582 7.46395C5.96039 7.13858 5.96039 6.61105 6.28582 6.28568C6.61125 5.96031 7.13887 5.96031 7.4643 6.28568L12.5014 11.3219L17.5359 6.28837C17.8613 5.96301 18.3889 5.96301 18.7143 6.28837C19.0398 6.61374 19.0398 7.14127 18.7143 7.46664L13.6799 12.5001L18.7141 17.5333C19.0395 17.8587 19.0395 18.3862 18.7141 18.7116C18.3886 19.037 17.861 19.037 17.5356 18.7116L12.5014 13.6784L7.46459 18.7143C7.13916 19.0397 6.61154 19.0397 6.28611 18.7143C5.96068 18.3889 5.96068 17.8614 6.28611 17.536L11.3229 12.5001Z" fill="#3E4958"/>
</svg>
