<svg width="47" height="47" viewBox="0 0 47 47" fill="none" xmlns="http://www.w3.org/2000/svg">
<g filter="url(#filter0_d_249_5490)">
<path d="M17.8474 12.0726C17.2377 12.6599 16.5982 13.3405 16.3622 13.8124C15.7372 15.0624 16.6748 18.4999 20.1123 22.2499C22.8623 25.2499 26.2581 26.5417 28.2373 26.75C29.3684 26.8691 30.4314 25.8926 31.1347 25.0339C31.6955 24.3493 31.5653 23.3764 30.9499 22.7404L29.8356 21.5891C28.991 20.7164 27.5886 20.8118 26.7357 21.6764C26.4704 21.9453 26.2238 22.163 26.0498 22.25C25.034 22.7579 20.4248 17.875 20.7372 16.9374C20.8718 16.7355 21.0643 16.5192 21.2836 16.3039C22.1981 15.4063 22.356 13.9093 21.4288 13.0249L20.4688 12.1092C19.732 11.4063 18.5808 11.3661 17.8474 12.0726Z" fill="white"/>
<path d="M17.8474 12.0726C17.2377 12.6599 16.5982 13.3405 16.3622 13.8124C15.7372 15.0624 16.6748 18.4999 20.1123 22.2499C22.8623 25.2499 26.2581 26.5417 28.2373 26.75C29.3684 26.8691 30.4314 25.8926 31.1347 25.0339C31.6955 24.3493 31.5653 23.3764 30.9499 22.7404L29.8356 21.5891C28.991 20.7164 27.5886 20.8118 26.7357 21.6764C26.4704 21.9453 26.2238 22.163 26.0498 22.25C25.034 22.7579 20.4248 17.875 20.7372 16.9374C20.8718 16.7355 21.0643 16.5192 21.2836 16.3039C22.1981 15.4063 22.356 13.9093 21.4288 13.0249L20.4688 12.1092C19.732 11.4063 18.5808 11.3661 17.8474 12.0726Z" stroke="#3E4958"/>
</g>
<defs>
<filter id="filter0_d_249_5490" x="0.681641" y="0.0619507" width="46.3103" height="46.198" filterUnits="userSpaceOnUse" color-interpolation-filters="sRGB">
<feFlood flood-opacity="0" result="BackgroundImageFix"/>
<feColorMatrix in="SourceAlpha" type="matrix" values="0 0 0 0 0 0 0 0 0 0 0 0 0 0 0 0 0 0 127 0" result="hardAlpha"/>
<feOffset dy="4"/>
<feGaussianBlur stdDeviation="7.5"/>
<feColorMatrix type="matrix" values="0 0 0 0 0 0 0 0 0 0 0 0 0 0 0 0 0 0 0.15 0"/>
<feBlend mode="normal" in2="BackgroundImageFix" result="effect1_dropShadow_249_5490"/>
<feBlend mode="normal" in="SourceGraphic" in2="effect1_dropShadow_249_5490" result="shape"/>
</filter>
</defs>
</svg>
