<svg width="75" height="16" viewBox="0 0 75 16" fill="none" xmlns="http://www.w3.org/2000/svg">
<path d="M21 15.6981H27.2102C29.345 15.6981 31.0881 15.044 32.4394 13.7358C33.7907 12.4277 34.4663 10.5553 34.4663 8.1186V7.51482C34.4663 5.07098 33.7907 3.20934 32.4394 1.92992C31.0952 0.643306 29.3522 0 27.2102 0H21V15.6981ZM23.8895 13.531V2.22102H27.0162C28.3387 2.22102 29.4133 2.6487 30.2399 3.50404C31.0665 4.35939 31.4798 5.66397 31.4798 7.41779V8.25876C31.4798 10.0198 31.0665 11.3387 30.2399 12.2156C29.4133 13.0925 28.3387 13.531 27.0162 13.531H23.8895Z" fill="#F5CE55"/>
<path d="M36.7089 15.6981H39.6307V9.45553C39.9398 8.85175 40.3962 8.35579 41 7.96765C41.6038 7.57233 42.2686 7.37466 42.9946 7.37466C43.3252 7.37466 43.6056 7.39623 43.8356 7.43935C44.0656 7.47529 44.2633 7.52561 44.4286 7.5903V5.28302C44.3064 5.2327 44.1303 5.18598 43.9003 5.14286C43.6774 5.09254 43.4043 5.06739 43.0809 5.06739C42.2902 5.06739 41.5894 5.27583 40.9784 5.69272C40.3675 6.10243 39.9039 6.59119 39.5876 7.15903H39.5553L39.5337 5.35849H36.7089V15.6981Z" fill="#F5CE55"/>
<path d="M45.9811 15.6981H48.8706V5.35849H45.9811V15.6981ZM45.7332 1.88679C45.7332 2.33243 45.8769 2.70979 46.1644 3.01887C46.4591 3.32075 46.8796 3.4717 47.4259 3.4717C47.965 3.4717 48.3818 3.32075 48.6765 3.01887C48.9712 2.70979 49.1186 2.33243 49.1186 1.88679C49.1186 1.44115 48.9748 1.07098 48.6873 0.77628C48.3998 0.474393 47.9829 0.32345 47.4367 0.32345C46.8904 0.32345 46.4699 0.474393 46.1752 0.77628C45.8805 1.07098 45.7332 1.44115 45.7332 1.88679Z" fill="#F5CE55"/>
<path d="M50.186 5.35849L54.9299 15.6981H57.6146L62.3477 5.35849H59.6954L56.7305 11.9677C56.637 12.1977 56.5651 12.3917 56.5148 12.5499C56.4645 12.708 56.4106 12.8697 56.3531 13.035H56.2992C56.2417 12.8697 56.1842 12.708 56.1267 12.5499C56.0764 12.3845 56.0045 12.1905 55.911 11.9677L52.9784 5.35849H50.186Z" fill="#F5CE55"/>
<path d="M62.6927 10.6307C62.6927 12.2767 63.239 13.5849 64.3315 14.5553C65.4313 15.5184 66.9479 16 68.8814 16C70.3621 16 71.5445 15.77 72.4286 15.31C73.3127 14.8428 73.9416 14.2534 74.3154 13.5418L72.1375 12.5714C71.8643 12.938 71.4654 13.2543 70.9407 13.5202C70.416 13.7862 69.7224 13.9191 68.8598 13.9191C67.7745 13.9191 66.9515 13.6316 66.3908 13.0566C65.8302 12.4816 65.5499 11.6945 65.5499 10.6954V10.1456C65.5499 9.25427 65.8158 8.5283 66.3477 7.96765C66.8868 7.39982 67.6918 7.1159 68.7628 7.1159C69.7835 7.1159 70.5202 7.33154 70.973 7.7628C71.4331 8.19407 71.6631 8.72237 71.6631 9.34771V9.43396H64.3208V11.0728H74.4447V10.1887C74.4447 8.60018 73.9488 7.34232 72.9569 6.41509C71.9721 5.48787 70.5777 5.02426 68.7736 5.02426C66.9407 5.02426 65.4672 5.51303 64.3531 6.49057C63.2462 7.4681 62.6927 8.75831 62.6927 10.3612V10.6307Z" fill="#F5CE55"/>
<path d="M0.809646 5.40904C0.618703 5.40476 0.433057 5.33448 0.286455 5.21097C0.139852 5.08746 0.0420273 4.91893 0.0107626 4.73602C-0.020502 4.5531 0.0168703 4.36794 0.116084 4.21419C0.215298 4.06045 0.369767 3.94832 0.551412 3.89821L15.5341 0.0228093C15.6691 -0.00993392 15.8121 -0.00738438 15.9486 0.0301991C16.0851 0.0677827 16.2103 0.139074 16.3116 0.236894C16.4129 0.334714 16.4868 0.455609 16.5257 0.587404C16.5646 0.7192 16.5672 0.857241 16.5333 0.987628L12.5196 15.4537C12.4706 15.632 12.3557 15.7846 12.196 15.8832C12.0363 15.9819 11.8428 16.0199 11.6512 15.9901C11.46 15.9578 11.2846 15.8607 11.1568 15.7165C11.029 15.5723 10.9573 15.3905 10.9547 15.2043C11.0527 10.0136 6.18535 5.31466 0.809646 5.40904Z" fill="white"/>
</svg>
