<svg width="38" height="38" viewBox="0 0 38 38" fill="none" xmlns="http://www.w3.org/2000/svg">
<g filter="url(#filter0_d_249_5953)">
<path d="M17.3596 15.0002L10.3401 7.98203C9.88662 7.52861 9.88662 6.79348 10.3401 6.34006C10.7936 5.88665 11.5289 5.88665 11.9824 6.34006L19.0019 13.3582L26.0176 6.34381C26.4711 5.8904 27.2064 5.8904 27.6599 6.34381C28.1134 6.79723 28.1134 7.53236 27.6599 7.98578L20.6441 15.0002L27.6595 22.0142C28.113 22.4676 28.113 23.2028 27.6595 23.6562C27.206 24.1096 26.4707 24.1096 26.0172 23.6562L19.0019 16.6422L11.9828 23.6599C11.5293 24.1134 10.794 24.1134 10.3405 23.6599C9.88702 23.2065 9.88702 22.4714 10.3405 22.018L17.3596 15.0002Z" fill="#3E4958"/>
</g>
<defs>
<filter id="filter0_d_249_5953" x="0" y="0" width="38" height="38" filterUnits="userSpaceOnUse" color-interpolation-filters="sRGB">
<feFlood flood-opacity="0" result="BackgroundImageFix"/>
<feColorMatrix in="SourceAlpha" type="matrix" values="0 0 0 0 0 0 0 0 0 0 0 0 0 0 0 0 0 0 127 0" result="hardAlpha"/>
<feOffset dy="4"/>
<feGaussianBlur stdDeviation="5"/>
<feColorMatrix type="matrix" values="0 0 0 0 0 0 0 0 0 0 0 0 0 0 0 0 0 0 0.15 0"/>
<feBlend mode="normal" in2="BackgroundImageFix" result="effect1_dropShadow_249_5953"/>
<feBlend mode="normal" in="SourceGraphic" in2="effect1_dropShadow_249_5953" result="shape"/>
</filter>
</defs>
</svg>
