<svg width="6" height="7" viewBox="0 0 6 7" fill="none" xmlns="http://www.w3.org/2000/svg">
<path d="M3.47375 2.93662H2.3602C2.02613 2.93662 1.80345 2.71462 1.80345 2.38169C1.80345 2.04872 2.02618 1.82677 2.3602 1.82677H4.0305C4.36457 1.82677 4.58725 1.60477 4.58725 1.27185C4.58725 0.938876 4.36452 0.716925 4.0305 0.716925H3.47375C3.47375 0.383953 3.25102 0.162003 2.917 0.162003C2.58293 0.162003 2.36025 0.384 2.36025 0.716925C1.41373 0.716925 0.689941 1.43833 0.689941 2.38174C0.689941 3.32515 1.41373 4.04656 2.36025 4.04656H3.4738C3.80787 4.04656 4.03055 4.26855 4.03055 4.60148C4.03055 4.93445 3.80782 5.1564 3.4738 5.1564H1.80349C1.46942 5.1564 1.24674 5.3784 1.24674 5.71132C1.24674 6.0443 1.46947 6.26625 1.80349 6.26625H2.36025C2.36025 6.59922 2.58298 6.82117 2.917 6.82117C3.25107 6.82117 3.47375 6.59917 3.47375 6.26625C4.42027 6.26625 5.14405 5.54484 5.14405 4.60143C5.14405 3.65802 4.42027 2.93662 3.47375 2.93662Z" fill="#89C763"/>
</svg>
